{
 "cells": [
  {
   "cell_type": "code",
   "execution_count": 3,
   "id": "0fa90bc7-eb7f-4d58-8f51-9110045fa01a",
   "metadata": {},
   "outputs": [],
   "source": [
    "import ffmpeg\n",
    "\n"
   ]
  },
  {
   "cell_type": "markdown",
   "id": "c465f6f3-86c1-4ff3-b394-a26593559823",
   "metadata": {},
   "source": [
    "`ffprobe` output\n",
    "\n",
    "```\n",
    "02-use-ffmpeg-with-python % ffprobe ./videos/input.mp4 \n",
    "ffprobe version 7.1 Copyright (c) 2007-2024 the FFmpeg developers\n",
    "  built with Apple clang version 15.0.0 (clang-1500.3.9.4)\n",
    "  configuration: --prefix=/opt/homebrew/Cellar/ffmpeg/7.1 --enable-shared --enable-pthreads --enable-version3 --cc=clang --host-cflags= --host-ldflags='-Wl,-ld_classic' --enable-ffplay --enable-gnutls --enable-gpl --enable-libaom --enable-libaribb24 --enable-libbluray --enable-libdav1d --enable-libharfbuzz --enable-libjxl --enable-libmp3lame --enable-libopus --enable-librav1e --enable-librist --enable-librubberband --enable-libsnappy --enable-libsrt --enable-libssh --enable-libsvtav1 --enable-libtesseract --enable-libtheora --enable-libvidstab --enable-libvmaf --enable-libvorbis --enable-libvpx --enable-libwebp --enable-libx264 --enable-libx265 --enable-libxml2 --enable-libxvid --enable-lzma --enable-libfontconfig --enable-libfreetype --enable-frei0r --enable-libass --enable-libopencore-amrnb --enable-libopencore-amrwb --enable-libopenjpeg --enable-libspeex --enable-libsoxr --enable-libzmq --enable-libzimg --disable-libjack --disable-indev=jack --enable-videotoolbox --enable-audiotoolbox --enable-neon\n",
    "  libavutil      59. 39.100 / 59. 39.100\n",
    "  libavcodec     61. 19.100 / 61. 19.100\n",
    "  libavformat    61.  7.100 / 61.  7.100\n",
    "  libavdevice    61.  3.100 / 61.  3.100\n",
    "  libavfilter    10.  4.100 / 10.  4.100\n",
    "  libswscale      8.  3.100 /  8.  3.100\n",
    "  libswresample   5.  3.100 /  5.  3.100\n",
    "  libpostproc    58.  3.100 / 58.  3.100\n",
    "Input #0, mov,mp4,m4a,3gp,3g2,mj2, from './videos/input.mp4':\n",
    "  Metadata:\n",
    "    major_brand     : isom\n",
    "    minor_version   : 512\n",
    "    compatible_brands: isomiso2avc1mp41\n",
    "    encoder         : Lavf59.16.100\n",
    "  Duration: 00:02:19.74, start: 0.000000, bitrate: 622 kb/s\n",
    "  Stream #0:0[0x1](und): Video: h264 (High) (avc1 / 0x31637661), yuv420p(tv, bt709, progressive), 1920x1080 [SAR 1:1 DAR 16:9], 488 kb/s, 23.98 fps, 23.98 tbr, 24k tbn (default)\n",
    "      Metadata:\n",
    "        handler_name    : ISO Media file produced by Google Inc.\n",
    "        vendor_id       : [0][0][0][0]\n",
    "  Stream #0:1[0x2](eng): Audio: aac (LC) (mp4a / 0x6134706D), 44100 Hz, stereo, fltp, 128 kb/s (default)\n",
    "      Metadata:\n",
    "        handler_name    : ISO Media file produced by Google Inc.\n",
    "        vendor_id       : [0][0][0][0]\n",
    "```"
   ]
  },
  {
   "cell_type": "code",
   "execution_count": null,
   "id": "eba01412-0a7c-4433-89e0-ae5facd5ef04",
   "metadata": {},
   "outputs": [
    {
     "name": "stderr",
     "output_type": "stream",
     "text": [
      "ffmpeg version 7.1 Copyright (c) 2000-2024 the FFmpeg developers\n",
      "  built with Apple clang version 15.0.0 (clang-1500.3.9.4)\n",
      "  configuration: --prefix=/opt/homebrew/Cellar/ffmpeg/7.1 --enable-shared --enable-pthreads --enable-version3 --cc=clang --host-cflags= --host-ldflags='-Wl,-ld_classic' --enable-ffplay --enable-gnutls --enable-gpl --enable-libaom --enable-libaribb24 --enable-libbluray --enable-libdav1d --enable-libharfbuzz --enable-libjxl --enable-libmp3lame --enable-libopus --enable-librav1e --enable-librist --enable-librubberband --enable-libsnappy --enable-libsrt --enable-libssh --enable-libsvtav1 --enable-libtesseract --enable-libtheora --enable-libvidstab --enable-libvmaf --enable-libvorbis --enable-libvpx --enable-libwebp --enable-libx264 --enable-libx265 --enable-libxml2 --enable-libxvid --enable-lzma --enable-libfontconfig --enable-libfreetype --enable-frei0r --enable-libass --enable-libopencore-amrnb --enable-libopencore-amrwb --enable-libopenjpeg --enable-libspeex --enable-libsoxr --enable-libzmq --enable-libzimg --disable-libjack --disable-indev=jack --enable-videotoolbox --enable-audiotoolbox --enable-neon\n",
      "  libavutil      59. 39.100 / 59. 39.100\n",
      "  libavcodec     61. 19.100 / 61. 19.100\n",
      "  libavformat    61.  7.100 / 61.  7.100\n",
      "  libavdevice    61.  3.100 / 61.  3.100\n",
      "  libavfilter    10.  4.100 / 10.  4.100\n",
      "  libswscale      8.  3.100 /  8.  3.100\n",
      "  libswresample   5.  3.100 /  5.  3.100\n",
      "  libpostproc    58.  3.100 / 58.  3.100\n",
      "Input #0, mov,mp4,m4a,3gp,3g2,mj2, from './videos/input.mp4':\n",
      "  Metadata:\n",
      "    major_brand     : isom\n",
      "    minor_version   : 512\n",
      "    compatible_brands: isomiso2avc1mp41\n",
      "    encoder         : Lavf59.16.100\n",
      "  Duration: 00:02:19.74, start: 0.000000, bitrate: 622 kb/s\n",
      "  Stream #0:0[0x1](und): Video: h264 (High) (avc1 / 0x31637661), yuv420p(tv, bt709, progressive), 1920x1080 [SAR 1:1 DAR 16:9], 488 kb/s, 23.98 fps, 23.98 tbr, 24k tbn (default)\n",
      "      Metadata:\n",
      "        handler_name    : ISO Media file produced by Google Inc.\n",
      "        vendor_id       : [0][0][0][0]\n",
      "  Stream #0:1[0x2](eng): Audio: aac (LC) (mp4a / 0x6134706D), 44100 Hz, stereo, fltp, 128 kb/s (default)\n",
      "      Metadata:\n",
      "        handler_name    : ISO Media file produced by Google Inc.\n",
      "        vendor_id       : [0][0][0][0]\n",
      "Stream mapping:\n",
      "  Stream #0:0 -> #0:0 (h264 (native) -> hevc (libx265))\n",
      "  Stream #0:1 -> #0:1 (aac (native) -> aac (native))\n",
      "Press [q] to stop, [?] for help\n",
      "x265 [info]: HEVC encoder version 3.5+1-f0c1022b6\n",
      "x265 [info]: build info [Mac OS X][clang 15.0.0][64 bit] 8bit+10bit+12bit\n",
      "x265 [info]: using cpu capabilities: NEON\n",
      "x265 [info]: Main profile, Level-4 (Main tier)\n",
      "x265 [info]: Thread pool created using 16 threads\n",
      "x265 [info]: Slices                              : 1\n",
      "x265 [info]: frame threads / pool features       : 4 / wpp(17 rows)\n",
      "x265 [info]: Coding QT: max CU size, min CU size : 64 / 8\n",
      "x265 [info]: Residual QT: max TU size, max depth : 32 / 1 inter / 1 intra\n",
      "x265 [info]: ME / range / subpel / merge         : hex / 57 / 2 / 3\n",
      "x265 [info]: Keyframe min / max / scenecut / bias  : 23 / 250 / 40 / 5.00 \n",
      "x265 [info]: Lookahead / bframes / badapt        : 20 / 4 / 2\n",
      "x265 [info]: b-pyramid / weightp / weightb       : 1 / 1 / 0\n",
      "x265 [info]: References / ref-limit  cu / depth  : 3 / off / on\n",
      "x265 [info]: AQ: mode / str / qg-size / cu-tree  : 2 / 1.0 / 32 / 1\n",
      "x265 [info]: Rate Control / qCompress            : CRF-28.0 / 0.60\n",
      "x265 [info]: tools: rd=3 psy-rd=2.00 early-skip rskip mode=1 signhide tmvp\n",
      "x265 [info]: tools: b-intra strong-intra-smoothing lslices=6 deblock sao\n",
      "Output #0, mp4, to './videos/output.mp4':\n",
      "  Metadata:\n",
      "    major_brand     : isom\n",
      "    minor_version   : 512\n",
      "    compatible_brands: isomiso2avc1mp41\n",
      "    encoder         : Lavf61.7.100\n",
      "  Stream #0:0(und): Video: hevc (hev1 / 0x31766568), yuv420p(tv, bt709, progressive), 1920x1080 [SAR 1:1 DAR 16:9], q=2-31, 23.98 fps, 24k tbn (default)\n",
      "      Metadata:\n",
      "        handler_name    : ISO Media file produced by Google Inc.\n",
      "        vendor_id       : [0][0][0][0]\n",
      "        encoder         : Lavc61.19.100 libx265\n",
      "      Side data:\n",
      "        cpb: bitrate max/min/avg: 0/0/0 buffer size: 0 vbv_delay: N/A\n",
      "  Stream #0:1(eng): Audio: aac (LC) (mp4a / 0x6134706D), 44100 Hz, stereo, fltp, 128 kb/s (default)\n",
      "      Metadata:\n",
      "        handler_name    : ISO Media file produced by Google Inc.\n",
      "        vendor_id       : [0][0][0][0]\n",
      "        encoder         : Lavc61.19.100 aac\n",
      "frame=   27 fps=0.0 q=32.7 size=       0KiB time=00:00:01.04 bitrate=   0.3kbits/s speed=2.06x    frame=   56 fps= 55 q=28.7 size=     512KiB time=00:00:02.25 bitrate=1862.4kbits/s speed=2.23x    frame=   76 fps= 50 q=30.1 size=     512KiB time=00:00:03.08 bitrate=1359.1kbits/s speed=2.04x    frame=   94 fps= 47 q=30.3 size=     768KiB time=00:00:03.83 bitrate=1639.7kbits/s speed= 1.9x    frame=  110 fps= 44 q=29.8 size=    1024KiB time=00:00:04.50 bitrate=1862.4kbits/s speed=1.78x    frame=  129 fps= 43 q=29.6 size=    1280KiB time=00:00:05.29 bitrate=1979.6kbits/s speed=1.75x    frame=  161 fps= 46 q=31.1 size=    1536KiB time=00:00:06.63 bitrate=1897.5kbits/s speed=1.88x    frame=  209 fps= 52 q=30.2 size=    1536KiB time=00:00:08.63 bitrate=1457.5kbits/s speed=2.14x    frame=  265 fps= 58 q=33.0 size=    1536KiB time=00:00:10.96 bitrate=1147.1kbits/s speed=2.41x    frame=  319 fps= 63 q=32.4 size=    1792KiB time=00:00:13.22 bitrate=1110.3kbits/s speed=2.62x    frame=  377 fps= 68 q=36.0 size=    1792KiB time=00:00:15.64 bitrate= 938.6kbits/s speed=2.82x    frame=  438 fps= 72 q=34.0 size=    1792KiB time=00:00:18.18 bitrate= 807.3kbits/s speed=   3x    frame=  497 fps= 76 q=33.0 size=    2048KiB time=00:00:20.64 bitrate= 812.6kbits/s speed=3.14x    frame=  549 fps= 78 q=28.5 size=    2048KiB time=00:00:22.81 bitrate= 735.4kbits/s speed=3.23x    frame=  584 fps= 77 q=31.4 size=    2304KiB time=00:00:24.27 bitrate= 777.6kbits/s speed= 3.2x    frame=  641 fps= 79 q=34.0 size=    2304KiB time=00:00:26.65 bitrate= 708.2kbits/s speed= 3.3x    frame=  706 fps= 82 q=30.3 size=    2304KiB time=00:00:29.36 bitrate= 642.8kbits/s speed=3.42x    frame=  767 fps= 84 q=31.0 size=    2560KiB time=00:00:31.90 bitrate= 657.3kbits/s speed=3.51x    frame=  811 fps= 85 q=30.0 size=    2816KiB time=00:00:33.74 bitrate= 683.7kbits/s speed=3.52x    frame=  864 fps= 86 q=33.8 size=    3072KiB time=00:00:35.95 bitrate= 700.0kbits/s speed=3.56x    frame=  925 fps= 87 q=35.8 size=    3072KiB time=00:00:38.49 bitrate= 653.7kbits/s speed=3.63x    "
     ]
    }
   ],
   "source": [
    "input_file = './videos/input.mp4'\n",
    "output_file = './videos/output.mp4'\n",
    "\n",
    "process = (\n",
    "    ffmpeg\n",
    "    .input(input_file)\n",
    "    .output(output_file, format='mp4', acodec='aac', vcodec='libx265')\n",
    "    .run()\n",
    ")"
   ]
  },
  {
   "cell_type": "code",
   "execution_count": null,
   "id": "dc759714-bf31-4f0e-9e56-0fec789348a3",
   "metadata": {},
   "outputs": [],
   "source": []
  }
 ],
 "metadata": {
  "kernelspec": {
   "display_name": "Python 3 (ipykernel)",
   "language": "python",
   "name": "python3"
  },
  "language_info": {
   "codemirror_mode": {
    "name": "ipython",
    "version": 3
   },
   "file_extension": ".py",
   "mimetype": "text/x-python",
   "name": "python",
   "nbconvert_exporter": "python",
   "pygments_lexer": "ipython3",
   "version": "3.12.7"
  }
 },
 "nbformat": 4,
 "nbformat_minor": 5
}
